<svg width="56" height="56" viewBox="0 0 56 56" fill="none" xmlns="http://www.w3.org/2000/svg">
<path d="M54.9145 11.2543C54.9109 11.2543 54.9072 11.2543 54.9037 11.2543H51.2239V9.99511C51.2437 9.49673 50.9213 9.04884 50.4423 8.90962C47.8877 8.24015 45.257 7.90447 42.616 7.91098C38.2741 7.91098 32.3582 8.88792 27.9837 13.3384C23.6418 8.8445 17.6825 7.91098 13.3514 7.91098C10.7104 7.90447 8.07978 8.24015 5.5251 8.90962C5.04613 9.04884 4.72374 9.49673 4.74355 9.99511V11.2434H1.08548C0.486024 11.2434 0 11.7294 0 12.3289V46.9992C0 47.5986 0.486024 48.0847 1.08548 48.0847C1.27191 48.0841 1.45509 48.0355 1.61737 47.9436C1.72592 47.8893 12.5807 41.9517 27.7341 45.7726H27.8969H27.9946C28.0811 45.783 28.1685 45.783 28.2551 45.7726C43.4518 41.9191 54.3066 47.8459 54.3718 47.9436C54.7076 48.1374 55.1214 48.1374 55.4573 47.9436C55.791 47.7509 55.9977 47.3955 56 47.01V12.3397C56 11.7403 55.5141 11.2543 54.9145 11.2543ZM2.17096 45.2733V13.4252H4.76526V40.6491C4.75848 41.2486 5.23894 41.74 5.8384 41.7468C5.89701 41.7475 5.95563 41.7434 6.01357 41.7346C8.25916 41.3917 10.5263 41.2103 12.7978 41.1919C15.9444 41.1373 19.0777 41.6106 22.0678 42.5921C15.3155 41.7756 8.46635 42.6985 2.17096 45.2733ZM12.7978 39.0317C10.8235 39.0362 8.85142 39.1631 6.89281 39.4117V10.8526C9.00624 10.3818 11.1644 10.1415 13.3297 10.1362C17.3894 10.1362 22.9905 11.0697 26.8765 15.4551L26.9091 42.4944C24.6513 41.0182 20.2442 39.0317 12.7978 39.0317ZM29.0801 15.4551C32.9661 11.1132 38.5672 10.1362 42.6269 10.1362C44.792 10.1426 46.9502 10.3828 49.0638 10.8526V39.4117C47.1161 39.1608 45.155 39.0303 43.1913 39.0209C35.7883 39.0209 31.3704 41.0073 29.0801 42.4836V15.4551ZM53.8182 45.2733C47.5094 42.6914 40.6445 41.7684 33.8779 42.5921C36.8821 41.607 40.0304 41.1336 43.1913 41.1919C45.4771 41.2046 47.7589 41.3824 50.019 41.7237C50.6117 41.8137 51.1651 41.4061 51.2551 40.8134C51.2639 40.7555 51.268 40.6969 51.2673 40.6383V13.4252H53.8616L53.8182 45.2733Z" fill="#071F41"/>
</svg>
