<svg width="56" height="56" viewBox="0 0 56 56" fill="none" xmlns="http://www.w3.org/2000/svg">
<g clip-path="url(#clip0_1_603)">
<path d="M52.9915 27.5172L50.7424 25.2681V3.86854L52.6321 1.97887C53.0026 1.60841 53.0026 1.00773 52.6321 0.637382C52.2615 0.266928 51.661 0.266928 51.2905 0.637382L49.4008 2.52706H28.001L25.7521 0.278084C25.3816 -0.0923693 24.7809 -0.0923693 24.4106 0.278084C24.0401 0.648538 24.0401 1.24923 24.4106 1.61957L26.5635 3.77251L19.8865 32.0667C19.3359 32.7546 19.1516 33.6717 19.4095 34.5283C19.6965 35.4812 20.4806 36.1961 21.4559 36.3941L25.7139 37.2584C26.5211 37.4223 27.2077 37.9326 27.5973 38.6584C27.9869 39.3842 28.0329 40.2382 27.7234 41.0015C27.22 42.2433 25.9028 42.9433 24.5925 42.6652L8.64041 39.2856C6.23853 38.7766 3.81686 40.1402 3.00584 42.4572C2.53553 43.8009 2.67279 45.2795 3.38231 46.5136C4.09194 47.7479 5.30064 48.6105 6.69813 48.8801L6.76419 48.8929C8.02124 49.1354 9.08874 49.9219 9.69304 51.0507C10.2972 52.1794 10.3599 53.5038 9.86465 54.6846C9.66198 55.1678 9.88948 55.7236 10.3726 55.9263C10.4925 55.9765 10.6167 56.0004 10.739 56.0004C11.1098 56.0004 11.4619 55.7816 11.6141 55.4183C12.3312 53.7083 12.2406 51.79 11.3654 50.1552C10.4903 48.5205 8.94404 47.3814 7.12371 47.0302L7.05765 47.0174C6.20157 46.8522 5.46142 46.3239 5.02688 45.568C4.59233 44.8121 4.50833 43.9067 4.79642 43.0838C5.29299 41.6649 6.77666 40.8303 8.24688 41.1416L24.1986 44.5212C26.4105 44.9899 28.6317 43.8094 29.4811 41.7143C30.0034 40.4263 29.9258 38.9854 29.2684 37.761C28.6111 36.5364 27.453 35.6756 26.0909 35.3991L21.8329 34.5348C21.4094 34.4489 21.2672 34.119 21.2258 33.9812C21.1921 33.8696 21.1443 33.6167 21.2893 33.3624L49.4965 26.7061L51.6495 28.859C51.8348 29.0442 52.0777 29.1369 52.3204 29.1369C52.5631 29.1369 52.806 29.0444 52.9913 28.859C53.3619 28.4883 53.3619 27.8877 52.9915 27.5172ZM47.5035 4.42428L38.701 13.2267L29.8984 4.42428H47.5035ZM28.1406 5.34959L37.3593 14.5683L22.4459 29.4818L28.1406 5.34959ZM23.7875 30.8235L38.701 15.91L47.9197 25.1287L23.7875 30.8235ZM48.845 23.3708L40.0425 14.5683L48.845 5.76576V23.3708Z" fill="#071F41"/>
</g>
<defs>
<clipPath id="clip0_1_603">
<rect width="56" height="56" fill="white"/>
</clipPath>
</defs>
</svg>
