<svg width="56" height="56" viewBox="0 0 56 56" fill="none" xmlns="http://www.w3.org/2000/svg">
<g clip-path="url(#clip0_1_631)">
<path d="M55.794 31.2001L54.7975 16.6657C54.7328 15.7243 54.3047 14.8651 53.5921 14.2466C52.8794 13.6281 51.9685 13.3252 51.0274 13.3938C49.1776 13.5286 47.743 15.087 47.7613 16.9416L47.8789 28.7903L42.7464 35.3638C41.927 36.4131 40.5676 36.8344 39.3345 36.5184L44.9189 29.2664C45.8991 27.9935 45.7361 26.1495 44.5482 25.0683C43.9139 24.4909 43.0938 24.2057 42.2377 24.2656C41.3821 24.3254 40.6092 24.7216 40.0612 25.3815L31.6249 35.5413C30.2336 37.217 29.4791 39.3391 29.5002 41.517L29.6312 55.0092C29.6364 55.5469 30.0734 55.9802 30.6112 55.981L44.6585 56.0001C44.6589 56.0001 44.6594 56.0001 44.6598 56.0001C44.9346 56.0001 45.1968 55.8849 45.3826 55.6825C45.5688 55.4797 45.6613 55.2082 45.6374 54.9338L45.064 48.3295L54.3892 35.9362C55.4114 34.578 55.9102 32.8959 55.794 31.2001ZM52.821 34.7564L43.2698 47.4501C43.1243 47.6435 43.0553 47.8839 43.0762 48.125L43.5894 54.036L31.5845 54.0197L31.4629 41.498C31.4462 39.784 32.0401 38.114 33.1351 36.7953L41.5713 26.6353C41.7735 26.3918 42.0587 26.2456 42.3744 26.2237C42.6901 26.2012 42.993 26.3067 43.2271 26.5199C43.6656 26.9189 43.7256 27.5994 43.3638 28.069L37.0267 36.2986C36.8605 36.5143 36.7915 36.7894 36.8361 37.058C36.8808 37.3266 37.035 37.5647 37.2619 37.7151C39.5298 39.2193 42.6187 38.7171 44.2934 36.5719L49.6372 29.7278C49.774 29.5527 49.8472 29.3363 49.8451 29.1141L49.7241 16.9223C49.7158 16.1013 50.3511 15.4113 51.1701 15.3515C51.5885 15.3214 51.9901 15.4553 52.3056 15.729C52.6212 16.0029 52.8107 16.3832 52.8393 16.8001L53.8359 31.3345C53.9197 32.5597 53.5595 33.7749 52.821 34.7564Z" fill="#071F41"/>
<path d="M15.9387 25.3815C15.3907 24.7216 14.6178 24.3253 13.7622 24.2656C12.9071 24.206 12.0861 24.4909 11.452 25.0683C10.2638 26.1496 10.1009 27.9937 11.0811 29.2666L16.6656 36.5185C15.4333 36.8341 14.073 36.4133 13.2536 35.3639L8.121 28.7904L8.23864 16.9417C8.25696 15.0872 6.82245 13.5287 4.97263 13.394C4.03287 13.3258 3.12097 13.6281 2.40797 14.2467C1.69537 14.8652 1.26723 15.7244 1.20259 16.6659L0.205905 31.2001C0.0895796 32.8959 0.588509 34.578 1.61045 35.9364L10.9358 48.3297L10.3625 54.9339C10.3385 55.2082 10.431 55.4798 10.6172 55.6826C10.8032 55.8851 11.0654 56.0002 11.34 56.0002C11.3404 56.0002 11.341 56.0002 11.3413 56.0002L25.3886 55.9811C25.9264 55.9803 26.3634 55.5471 26.3686 55.0093L26.4998 41.5171C26.5208 39.3394 25.7663 37.2173 24.375 35.5416L15.9387 25.3815ZM24.4155 54.0197L12.4106 54.036L12.9238 48.125C12.9448 47.8839 12.8759 47.6435 12.7303 47.4501L3.17894 34.7564C2.44043 33.775 2.0802 32.5597 2.16407 31.3345L3.16075 16.8001C3.18941 16.3832 3.37888 16.0029 3.69449 15.729C3.98066 15.4806 4.33905 15.3473 4.71407 15.3473C4.75254 15.3473 4.79114 15.3487 4.83 15.3515C5.64899 15.4112 6.284 16.1011 6.27589 16.9223L6.15485 29.1141C6.15263 29.3363 6.22591 29.5527 6.36277 29.7278L11.7065 36.5719C13.3816 38.7171 16.4701 39.219 18.7381 37.7153C18.965 37.5648 19.1193 37.3268 19.1639 37.0581C19.2085 36.7895 19.1395 36.5143 18.9734 36.2986L12.6361 28.0692C12.2744 27.5994 12.3345 26.919 12.7731 26.5199C13.0072 26.3067 13.3097 26.2019 13.6256 26.2237C13.9413 26.2456 14.2266 26.3919 14.4287 26.6354L22.865 36.7954C23.96 38.1142 24.5539 39.7843 24.5371 41.4981L24.4155 54.0197Z" fill="#071F41"/>
<path d="M47.2247 11.0429C47.2247 8.09331 46.0759 5.32022 43.9902 3.23447C41.9044 1.1486 39.1315 0 36.1817 0C33.2321 0 30.459 1.1486 28.3731 3.23434L28 3.60766L27.6266 3.23434C25.541 1.1486 22.7679 0 19.8182 0C16.8686 0 14.0955 1.1486 12.0096 3.23434C7.70413 7.53995 7.70413 14.5456 12.0097 18.8514L27.3059 34.1476C27.4976 34.3391 27.7489 34.4351 28 34.4351C28.2511 34.4351 28.5023 34.3393 28.694 34.1476L43.9902 18.8513C46.0759 16.7656 47.2247 13.9925 47.2247 11.0429ZM28.0001 32.0659L13.3977 17.4635C9.85726 13.9231 9.85726 8.16253 13.3977 4.62213C15.1126 2.90722 17.3929 1.96275 19.8182 1.96275C22.2436 1.96275 24.5238 2.90722 26.2389 4.62227L27.3061 5.68948C27.49 5.87358 27.7396 5.97695 28 5.97695C28.2604 5.97695 28.5099 5.87345 28.694 5.68948L29.7611 4.62227C31.4761 2.90722 33.7564 1.96275 36.1817 1.96275C38.6072 1.96275 40.8874 2.90722 42.6023 4.62227C44.3173 6.33731 45.2619 8.6175 45.2619 11.0429C45.2619 13.4684 44.3173 15.7485 42.6023 17.4636L28.0001 32.0659Z" fill="#071F41"/>
</g>
<defs>
<clipPath id="clip0_1_631">
<rect width="56" height="56" fill="white"/>
</clipPath>
</defs>
</svg>
