<svg width="56" height="56" viewBox="0 0 56 56" fill="none" xmlns="http://www.w3.org/2000/svg">
<path d="M55.9927 39.0843C54.3202 25.6667 41.8004 23.6788 38.2667 23.3858V11.2C38.2667 11.1162 38.1491 2.80005 28 2.80005C17.8509 2.80005 17.7333 11.1162 17.7333 11.2V23.3858C14.1996 23.6788 1.68483 25.6667 0.00729167 39.0843C0.00729167 39.103 0 39.1777 0 39.2001V42.9334C0 43.4488 0.417904 43.8667 0.933333 43.8667H5.6V45.7334H2.8C2.28457 45.7334 1.86667 46.1513 1.86667 46.6667C1.86667 48.9262 3.23203 53.2001 8.4 53.2001C13.568 53.2001 14.9333 48.9262 14.9333 46.6667C14.9333 46.1513 14.5154 45.7334 14 45.7334H11.2V43.8667H25.2V45.7334H22.4C21.8846 45.7334 21.4667 46.1513 21.4667 46.6667C21.4667 48.9262 22.832 53.2001 28 53.2001C33.168 53.2001 34.5333 48.9262 34.5333 46.6667C34.5333 46.1513 34.1154 45.7334 33.6 45.7334H30.8V43.8667H44.8V45.7334H42C41.4846 45.7334 41.0667 46.1513 41.0667 46.6667C41.0667 48.9262 42.432 53.2001 47.6 53.2001C52.768 53.2001 54.1333 48.9262 54.1333 46.6667C54.1333 46.1513 53.7154 45.7334 53.2 45.7334H50.4V43.8667H55.0667C55.5821 43.8667 56 43.4488 56 42.9334V39.2001C56 39.1786 56 39.1066 55.9927 39.0843ZM19.6 11.2C19.6 10.933 19.6934 4.66672 28 4.66672C36.2487 4.66672 36.4 10.9366 36.4 11.2V23.3334H34.5333V17.7334H32.6667V23.3334H19.6V11.2ZM10.8268 27.0107C13.3041 25.9228 15.9633 25.3085 18.6667 25.2H37.3333C40.0367 25.3085 42.6959 25.9228 45.1732 27.0107C49.88 28.9584 53.2223 33.2295 53.9811 38.2667H2.01888C2.77767 33.2295 6.11999 28.9584 10.8268 27.0107ZM8.4 51.3334C6.12591 51.5043 4.1166 49.8627 3.83132 47.6H12.9641C12.6679 49.855 10.6686 51.4902 8.4 51.3334ZM9.33333 45.7334H7.46667V43.8667H9.33333V45.7334ZM28 51.3334C25.7259 51.5043 23.7166 49.8627 23.4313 47.6H32.5641C32.2679 49.855 30.2686 51.4902 28 51.3334ZM28.9333 45.7334H27.0667V43.8667H28.9333V45.7334ZM47.6 51.3334C45.3241 51.507 43.312 49.8646 43.0268 47.6H52.1641C51.8679 49.855 49.8686 51.4902 47.6 51.3334ZM48.5333 45.7334H46.6667V43.8667H48.5333V45.7334ZM54.1333 42H1.86667V40.1334H54.1333V42Z" fill="#071F41"/>
<path d="M28 27.0667C25.4228 27.0667 23.3333 29.1562 23.3333 31.7333C23.3333 34.3105 25.4228 36.4 28 36.4C30.5771 36.4 32.6666 34.3105 32.6666 31.7333C32.6635 29.1571 30.5762 27.0698 28 27.0667ZM28 34.5333C26.4537 34.5333 25.2 33.2796 25.2 31.7333C25.2 30.187 26.4537 28.9333 28 28.9333C29.5463 28.9333 30.8 30.187 30.8 31.7333C30.8 33.2796 29.5463 34.5333 28 34.5333Z" fill="#071F41"/>
<path d="M29.8667 31.7334C29.8667 32.7642 29.0309 33.6 28 33.6C26.9692 33.6 26.1334 32.7642 26.1334 31.7334C26.1334 30.7025 26.9692 29.8667 28 29.8667C29.0309 29.8667 29.8667 30.7025 29.8667 31.7334Z" fill="#071F41"/>
<path d="M32.6667 14H34.5334V15.8667H32.6667V14Z" fill="#071F41"/>
<path d="M32.6667 11.2001V12.1334H34.5333V11.2001C34.5333 10.7221 34.3465 6.53345 28 6.53345V8.40011C32.3308 8.40011 32.6667 10.5466 32.6667 11.2001Z" fill="#071F41"/>
<path d="M19.6 30.8H21.4666V32.6667H19.6V30.8Z" fill="#071F41"/>
<path d="M15.8666 30.8H17.7333V32.6667H15.8666V30.8Z" fill="#071F41"/>
<path d="M34.5333 30.8H36.4V32.6667H34.5333V30.8Z" fill="#071F41"/>
<path d="M38.2667 30.8H40.1333V32.6667H38.2667V30.8Z" fill="#071F41"/>
</svg>
