<svg width="56" height="56" viewBox="0 0 56 56" fill="none" xmlns="http://www.w3.org/2000/svg">
<path d="M26.973 22.6616C26.7821 22.5941 26.5877 22.524 26.393 22.4518V18.922C27.0369 19.1772 27.4892 19.5348 27.507 19.549C27.9724 19.9306 28.6593 19.8644 29.0432 19.4003C29.4283 18.9348 29.3631 18.2455 28.8976 17.8603C28.8336 17.8074 27.8174 16.9818 26.3932 16.6337V16.0977C26.3932 15.4936 25.9034 15.0039 25.2994 15.0039C24.6954 15.0039 24.2057 15.4936 24.2057 16.0977V16.5831C24.0898 16.608 23.9736 16.6361 23.8564 16.6713C22.599 17.0501 21.6913 18.1099 21.4282 19.5064C21.1726 20.8632 21.6147 22.2163 22.5545 22.9534C22.9834 23.2897 23.5061 23.5982 24.2058 23.9187V28.5446C23.7104 28.4751 23.3391 28.307 22.7474 27.9199C22.2419 27.5891 21.5641 27.7308 21.2333 28.2364C20.9026 28.7419 21.0442 29.4197 21.5498 29.7505C22.5888 30.4301 23.3214 30.6688 24.2058 30.745V31.4251C24.2058 32.0292 24.6955 32.5189 25.2995 32.5189C25.9035 32.5189 26.3933 32.0292 26.3933 31.4251V30.6403C28.2124 30.1792 29.3784 28.6253 29.636 27.0933C29.9671 25.1227 28.897 23.3418 26.973 22.6616ZM24.2057 21.4442C24.0973 21.3748 23.9961 21.3042 23.9044 21.2323C23.6092 21.0007 23.4749 20.4576 23.5778 19.9116C23.6123 19.7285 23.752 19.1848 24.2057 18.8962V21.4442ZM27.4786 26.7309C27.3786 27.3251 27.0103 27.9497 26.393 28.3025V24.7821C27.5801 25.2813 27.5506 26.3026 27.4786 26.7309Z" fill="#FF751D"/>
<path d="M51.7903 23.3685L44.8438 18.7812V1.09375C44.8438 0.489672 44.354 0 43.75 0H17.5C16.896 0 16.4062 0.489672 16.4062 1.09375V5.25H12.25C11.646 5.25 11.1562 5.73967 11.1562 6.34375V18.7813L4.20973 23.3686C3.90327 23.571 3.71875 23.9139 3.71875 24.2812V54.9062C3.71875 55.5103 4.20853 56 4.8125 56H23.0781C23.6821 56 24.1719 55.5103 24.1719 54.9062C24.1719 54.3022 23.6821 53.8125 23.0781 53.8125H7.45314L23.3994 37.8663L27.3973 40.5065C27.58 40.6271 27.79 40.6875 28 40.6875C28.21 40.6875 28.42 40.6271 28.6028 40.5065L32.6007 37.8663L48.547 53.8125H32.9219C32.3179 53.8125 31.8281 54.3022 31.8281 54.9062C31.8281 55.5103 32.3179 56 32.9219 56H51.1875C51.7915 56 52.2812 55.5103 52.2812 54.9062V24.2812C52.2812 23.9139 52.0967 23.571 51.7903 23.3685ZM49.2027 24.2812L44.8438 27.1598V21.4027L49.2027 24.2812ZM18.5938 2.1875H42.6562V28.6044L39.5938 30.6269V6.34375C39.5938 5.73967 39.104 5.25 38.5 5.25H18.5938V2.1875ZM11.1562 21.4027V27.1598L6.79733 24.2812L11.1562 21.4027ZM5.90625 52.2657V26.3143L21.536 36.6359L5.90625 52.2657ZM28 38.283L13.3438 28.6043V7.4375H37.4062V32.0714L28 38.283ZM50.0938 26.3143V52.2657L34.464 36.6358L50.0938 26.3143Z" fill="#FF751D"/>
<path d="M28 53.8125C27.7123 53.8125 27.4302 53.9295 27.2267 54.133C27.0233 54.3364 26.9062 54.6186 26.9062 54.9062C26.9062 55.1939 27.0232 55.4761 27.2267 55.6795C27.4303 55.883 27.7123 56 28 56C28.2877 56 28.5698 55.883 28.7732 55.6795C28.9766 55.4761 29.0938 55.1939 29.0938 54.9062C29.0938 54.6186 28.9767 54.3364 28.7732 54.133C28.5698 53.9295 28.2877 53.8125 28 53.8125Z" fill="#FF751D"/>
</svg>
