<svg width="49" height="56" viewBox="0 0 49 56" fill="none" xmlns="http://www.w3.org/2000/svg">
<path d="M23.2542 22.6616C23.0633 22.5941 22.869 22.524 22.6743 22.4518V18.922C23.3182 19.1772 23.7705 19.5348 23.7883 19.549C24.2537 19.9306 24.9406 19.8644 25.3245 19.4003C25.7096 18.9348 25.6444 18.2455 25.1789 17.8603C25.1149 17.8074 24.0987 16.9818 22.6744 16.6337V16.0977C22.6744 15.4936 22.1846 15.0039 21.5807 15.0039C20.9767 15.0039 20.4869 15.4936 20.4869 16.0977V16.5831C20.3711 16.608 20.2548 16.6361 20.1377 16.6713C18.8803 17.0501 17.9726 18.1099 17.7094 19.5064C17.4538 20.8632 17.8959 22.2163 18.8358 22.9534C19.2646 23.2897 19.7873 23.5982 20.487 23.9187V28.5446C19.9917 28.4751 19.6203 28.307 19.0286 27.9199C18.5232 27.5891 17.8454 27.7308 17.5145 28.2364C17.1839 28.7419 17.3254 29.4197 17.8311 29.7505C18.87 30.4301 19.6026 30.6688 20.487 30.745V31.4251C20.487 32.0292 20.9768 32.5189 21.5808 32.5189C22.1847 32.5189 22.6745 32.0292 22.6745 31.4251V30.6403C24.4936 30.1792 25.6597 28.6253 25.9173 27.0933C26.2484 25.1227 25.1782 23.3418 23.2542 22.6616ZM20.4869 21.4442C20.3785 21.3748 20.2773 21.3042 20.1857 21.2323C19.8905 21.0007 19.7562 20.4576 19.8591 19.9116C19.8935 19.7285 20.0332 19.1848 20.4869 18.8962V21.4442ZM23.7598 26.7309C23.6599 27.3251 23.2915 27.9497 22.6743 28.3025V24.7821C23.8613 25.2813 23.8318 26.3026 23.7598 26.7309Z" fill="#071F41"/>
<path d="M48.0715 23.3685L41.125 18.7812V1.09375C41.125 0.489672 40.6352 0 40.0312 0H13.7812C13.1773 0 12.6875 0.489672 12.6875 1.09375V5.25H8.53125C7.92728 5.25 7.4375 5.73967 7.4375 6.34375V18.7813L0.490984 23.3686C0.184515 23.571 0 23.9139 0 24.2812V54.9062C0 55.5103 0.489781 56 1.09375 56H19.3594C19.9633 56 20.4531 55.5103 20.4531 54.9062C20.4531 54.3022 19.9633 53.8125 19.3594 53.8125H3.73439L19.6806 37.8663L23.6786 40.5065C23.8612 40.6271 24.0713 40.6875 24.2812 40.6875C24.4912 40.6875 24.7012 40.6271 24.884 40.5065L28.882 37.8663L44.8282 53.8125H29.2031C28.5992 53.8125 28.1094 54.3022 28.1094 54.9062C28.1094 55.5103 28.5992 56 29.2031 56H47.4688C48.0727 56 48.5625 55.5103 48.5625 54.9062V24.2812C48.5625 23.9139 48.378 23.571 48.0715 23.3685ZM45.4839 24.2812L41.125 27.1598V21.4027L45.4839 24.2812ZM14.875 2.1875H38.9375V28.6044L35.875 30.6269V6.34375C35.875 5.73967 35.3852 5.25 34.7812 5.25H14.875V2.1875ZM7.4375 21.4027V27.1598L3.07858 24.2812L7.4375 21.4027ZM2.1875 52.2657V26.3143L17.8173 36.6359L2.1875 52.2657ZM24.2812 38.283L9.625 28.6043V7.4375H33.6875V32.0714L24.2812 38.283ZM46.375 26.3143V52.2657L30.7452 36.6358L46.375 26.3143Z" fill="#071F41"/>
<path d="M24.2812 53.8125C23.9936 53.8125 23.7114 53.9295 23.508 54.133C23.3045 54.3364 23.1875 54.6186 23.1875 54.9062C23.1875 55.1939 23.3044 55.4761 23.508 55.6795C23.7115 55.883 23.9936 56 24.2812 56C24.5689 56 24.8511 55.883 25.0544 55.6795C25.2579 55.4761 25.375 55.1939 25.375 54.9062C25.375 54.6186 25.258 54.3364 25.0544 54.133C24.8511 53.9295 24.5689 53.8125 24.2812 53.8125Z" fill="#071F41"/>
</svg>
